HIERARCHY
ROOT Hips
{
	OFFSET 0.00000 0.00000 0.00000
	CHANNELS 6 Xposition Yposition Zposition Zrotation Yrotation Xrotation 
	JOINT LHipJoint
	{
		OFFSET 0 0 0
		CHANNELS 3 Zrotation Yrotation Xrotation
		JOINT LeftUpLeg
		{
			OFFSET 1.55766 -1.60504 1.11378
			CHANNELS 3 Zrotation Yrotation Xrotation
			JOINT LeftLeg
			{
				OFFSET 2.29047 -6.29302 0.00000
				CHANNELS 3 Zrotation Yrotation Xrotation
				JOINT LeftFoot
				{
					OFFSET 2.52265 -6.93093 0.00000
					CHANNELS 3 Zrotation Yrotation Xrotation
					JOINT LeftToeBase
					{
						OFFSET 0.17633 -0.48446 2.02656
						CHANNELS 3 Zrotation Yrotation Xrotation
						End Site
						{
							OFFSET 0.00000 -0.00000 1.04989
						}
					}
				}
			}
		}
	}
	JOINT RHipJoint
	{
		OFFSET 0 0 0
		CHANNELS 3 Zrotation Yrotation Xrotation
		JOINT RightUpLeg
		{
			OFFSET -1.48599 -1.60504 1.11378
			CHANNELS 3 Zrotation Yrotation Xrotation
			JOINT RightLeg
			{
				OFFSET -2.27280 -6.24448 0.00000
				CHANNELS 3 Zrotation Yrotation Xrotation
				JOINT RightFoot
				{
					OFFSET -2.50834 -6.89161 0.00000
					CHANNELS 3 Zrotation Yrotation Xrotation
					JOINT RightToeBase
					{
						OFFSET -0.26967 -0.74090 2.08741
						CHANNELS 3 Zrotation Yrotation Xrotation
						End Site
						{
							OFFSET -0.00000 -0.00000 1.10614
						}
					}
				}
			}
		}
	}
	JOINT LowerBack
	{
		OFFSET 0 0 0
		CHANNELS 3 Zrotation Yrotation Xrotation
		JOINT Spine
		{
			OFFSET 0.06481 2.02437 -0.08472
			CHANNELS 3 Zrotation Yrotation Xrotation
			JOINT Spine1
			{
				OFFSET 0.00015 1.96711 0.18069
				CHANNELS 3 Zrotation Yrotation Xrotation
				JOINT Neck
				{
					OFFSET 0 0 0
					CHANNELS 3 Zrotation Yrotation Xrotation
					JOINT Neck1
					{
						OFFSET -0.29961 1.68293 -0.13041
						CHANNELS 3 Zrotation Yrotation Xrotation
						JOINT Head
						{
							OFFSET 0.59697 1.61501 -0.14669
							CHANNELS 3 Zrotation Yrotation Xrotation
							End Site
							{
								OFFSET 0.22973 1.74906 -0.10148
							}
						}
					}
				}
				JOINT LeftShoulder
				{
					OFFSET 0 0 0
					CHANNELS 3 Zrotation Yrotation Xrotation
					JOINT LeftArm
					{
						OFFSET 3.37968 1.02893 0.31147
						CHANNELS 3 Zrotation Yrotation Xrotation
						JOINT LeftForeArm
						{
							OFFSET 5.19807 -0.00000 -0.00000
							CHANNELS 3 Zrotation Yrotation Xrotation
							JOINT LeftHand
							{
								OFFSET 3.09370 -0.00000 -0.00000
								CHANNELS 3 Zrotation Yrotation Xrotation
								JOINT LeftFingerBase
								{
									OFFSET 0 0 0
									CHANNELS 3 Zrotation Yrotation Xrotation
									JOINT LeftHandIndex1
									{
										OFFSET 0.67263 -0.00000 -0.00000
										CHANNELS 3 Zrotation Yrotation Xrotation
										End Site
										{
											OFFSET 0.54229 -0.00000 -0.00000
										}
									}
								}
								JOINT LThumb
								{
									OFFSET 0 0 0
									CHANNELS 3 Zrotation Yrotation Xrotation
									End Site
									{
										OFFSET 0.55057 -0.00000 0.55057
									}
								}
							}
						}
					}
				}
				JOINT RightShoulder
				{
					OFFSET 0 0 0
					CHANNELS 3 Zrotation Yrotation Xrotation
					JOINT RightArm
					{
						OFFSET -3.38254 0.96355 -0.16120
						CHANNELS 3 Zrotation Yrotation Xrotation
						JOINT RightForeArm
						{
							OFFSET -5.45222 -0.00000 -0.00000
							CHANNELS 3 Zrotation Yrotation Xrotation
							JOINT RightHand
							{
								OFFSET -3.01284 -0.00000 -0.00000
								CHANNELS 3 Zrotation Yrotation Xrotation
								JOINT RightFingerBase
								{
									OFFSET 0 0 0
									CHANNELS 3 Zrotation Yrotation Xrotation
									JOINT RightHandIndex1
									{
										OFFSET -0.62230 -0.00000 -0.00000
										CHANNELS 3 Zrotation Yrotation Xrotation
										End Site
										{
											OFFSET -0.50171 -0.00000 -0.00000
										}
									}
								}
								JOINT RThumb
								{
									OFFSET 0 0 0
									CHANNELS 3 Zrotation Yrotation Xrotation
									End Site
									{
										OFFSET -0.50937 -0.00000 0.50937
									}
								}
							}
						}
					}
				}
			}
		}
	}
}
MOTION
Frames: 9
Frame Time: .0083333
-6.0975 16.2266 34.6906 0 0 0 0 0 0 -21 0 0 0 0 0 0 0 0 0 0 0 0 0 0 21 0 0 0 0 0 0 0 0 0 0 0 0 0 0 0 0 0 0 0 0 0 0 -16 0 0 21 0 0 11 0 0 0 -8 0 0 0 0 0 0 0 0 0 0 0 0 0 0 0 0 0 0 0 0 8 0 0 0 0 0 0 0 0 0 0 0 0 0 0 0 0 0
-6.0975 16.2266 34.6906 -172.6920 -81.1344 -174.8750 0.0000 0.0000 0.0000 -18.7913 0.1572 -13.1754 0.4805 4.4452 12.3326 0.4536 -6.1902 -12.1019 1.4395 -7.5854 -21.4618 0.0000 0.0000 0.0000 18.9180 -4.0261 -14.9709 -0.6820 -5.2801 14.7092 0.3825 21.4490 -11.9626 -0.3567 3.8372 -10.6191 0.3022 1.8363 -10.3154 -0.9511 2.1402 -6.1949 -0.9462 0.9300 -0.6118 -30.7490 -6.2782 17.7038 43.2017 -14.5251 -9.2959 24.0455 -9.9985 0.6734 -0.0000 0.0000 0.0000 -82.0349 18.0469 36.0646 24.2843 -35.4635 -7.8709 -0.0000 0.0000 -56.7699 -18.0305 -6.7724 2.1983 -7.1250 0.0000 -0.0000 -31.2008 22.5623 19.9270 -0.0000 0.0000 0.0000 88.8717 -14.1165 18.4487 -16.7872 26.5764 -3.9917 0.0000 0.0000 22.0486 -8.3556 5.8148 -0.8525 7.1250 -0.0000 -0.0000 13.5534 -24.1110 7.0246
-6.0924 16.2284 34.6898 -172.6070 -81.0960 -174.8900 0.0000 0.0000 0.0000 -18.7796 0.2161 -13.2816 0.4777 4.4325 12.2966 0.4515 -6.2003 -12.0772 1.4856 -7.7006 -21.8082 0.0000 0.0000 0.0000 18.9490 -4.0379 -15.0872 -0.6816 -5.2788 14.7054 0.4003 21.5378 -11.8845 -0.3490 3.7955 -10.5021 0.3589 1.8603 -10.2300 -0.9902 2.1681 -6.2045 -1.0183 0.9419 -0.6640 -30.6962 -6.2939 17.6358 43.2297 -14.4870 -9.4113 24.0523 -9.9784 0.6398 -0.0000 -0.0000 0.0000 -81.6391 18.4949 36.7224 24.8714 -36.0722 -8.2141 -0.0000 0.0000 -57.0048 -17.4589 -7.3617 2.3077 -7.1250 0.0000 -0.0000 -30.7179 22.0807 19.9131 -0.0000 -0.0000 0.0000 88.8611 -14.3143 18.3444 -17.0280 26.8947 -4.1000 0.0000 0.0000 21.6889 -8.3487 5.7299 -0.8394 7.1250 -0.0000 -0.0000 13.5665 -24.1945 7.0048
-6.0882 16.2298 34.6883 -172.7700 -81.0622 -174.6480 0.0000 0.0000 0.0000 -18.7992 0.2199 -13.3773 0.4755 4.4225 12.2684 0.4481 -6.2271 -12.0378 1.4660 -7.6518 -21.6613 0.0000 0.0000 0.0000 18.9721 -4.1883 -15.2599 -0.6794 -5.2702 14.6809 0.4200 21.7175 -11.8722 -0.3656 3.8842 -10.7510 0.3162 1.8397 -10.1728 -0.9778 2.1440 -6.2186 -0.9857 0.9309 -0.7124 -30.7366 -6.2761 17.5362 43.2358 -14.4204 -9.4771 24.0744 -9.9348 0.6189 -0.0000 -0.0000 0.0000 -81.2704 19.0354 37.4431 25.6185 -36.8295 -8.6579 -0.0000 0.0000 -57.5090 -16.5599 -7.6963 2.2804 -7.1250 0.0000 -0.0000 -30.1025 21.8490 19.5597 -0.0000 -0.0000 0.0000 88.7426 -14.5313 18.1869 -17.2669 27.2083 -4.2086 0.0000 0.0000 21.7190 -8.2547 5.8614 -0.8488 7.1250 -0.0000 -0.0000 13.6225 -24.0667 7.0769
-6.0832 16.2327 34.6867 -172.4930 -81.0484 -174.8310 0.0000 0.0000 0.0000 -18.7390 0.1991 -13.4842 0.4735 4.4133 12.2424 0.4446 -6.2360 -11.9940 1.4470 -7.6042 -21.5181 0.0000 0.0000 0.0000 19.0360 -4.1326 -15.3583 -0.6772 -5.2621 14.6576 0.4291 21.7184 -11.7936 -0.3505 3.8039 -10.5257 0.3706 1.8895 -10.0831 -1.0318 2.2050 -6.2552 -1.0695 0.9583 -0.7940 -30.6083 -6.2915 17.5561 43.2768 -14.3767 -9.6450 24.0847 -9.9232 0.5443 0.0000 -0.0000 0.0000 -80.6970 19.5889 38.2468 26.3273 -37.5301 -9.0863 -0.0000 0.0000 -57.8663 -16.2012 -8.0032 2.3165 -7.1250 0.0000 -0.0000 -29.8162 21.5986 19.5120 0.0000 -0.0000 0.0000 88.7171 -14.7598 18.1640 -17.4500 27.4472 -4.2927 0.0000 0.0000 21.3266 -8.4815 5.7032 -0.8490 7.1250 -0.0000 -0.0000 13.4722 -24.2190 6.9455
-6.0781 16.2350 34.6848 -172.3610 -81.0219 -174.8720 0.0000 0.0000 0.0000 -18.7038 0.1881 -13.5904 0.4716 4.4043 12.2170 0.4411 -6.2440 -11.9516 1.4267 -7.5530 -21.3644 0.0000 0.0000 0.0000 19.0884 -4.1501 -15.4897 -0.6754 -5.2550 14.6372 0.4451 21.7964 -11.7231 -0.3452 3.7751 -10.4449 0.3762 1.9053 -10.0051 -1.0422 2.2250 -6.2811 -1.0843 0.9675 -0.8625 -30.5789 -6.2880 17.5091 43.3010 -14.3188 -9.7641 24.1062 -9.8932 0.4980 -0.0000 -0.0000 0.0000 -80.2350 20.1370 38.9324 27.0721 -38.2478 -9.5437 -0.0000 0.0000 -58.3017 -15.7037 -8.2281 2.3042 -7.1250 0.0000 -0.0000 -29.4656 21.4303 19.3380 -0.0000 -0.0000 0.0000 88.6134 -14.9731 18.1064 -17.6415 27.6956 -4.3813 0.0000 0.0000 21.1123 -8.5390 5.6790 -0.8512 7.1250 -0.0000 -0.0000 13.4326 -24.2421 6.9166
-6.0729 16.2373 34.6827 -172.2300 -80.9981 -174.9100 0.0000 0.0000 0.0000 -18.6662 0.1693 -13.7043 0.4705 4.3992 12.2026 0.4379 -6.2561 -11.9119 1.4010 -7.4874 -21.1677 0.0000 0.0000 0.0000 19.1429 -4.1701 -15.6178 -0.6722 -5.2429 14.6027 0.4621 21.8717 -11.6421 -0.3398 3.7462 -10.3636 0.3635 1.9164 -9.9255 -1.0396 2.2403 -6.3077 -1.0759 0.9751 -0.9338 -30.5661 -6.2800 17.4540 43.3207 -14.2544 -9.8831 24.1301 -9.8580 0.4516 -0.0000 -0.0000 0.0000 -79.7755 20.7058 39.6116 27.8405 -38.9690 -10.0232 -0.0000 0.0000 -58.7139 -15.2012 -8.4373 2.2831 -7.1250 0.0000 -0.0000 -29.1151 21.2742 19.1532 -0.0000 -0.0000 0.0000 88.4720 -15.1811 18.0583 -17.8121 27.9159 -4.4609 0.0000 0.0000 20.9383 -8.5924 5.6724 -0.8556 7.1250 -0.0000 -0.0000 13.3942 -24.2478 6.8939
-6.0675 16.2397 34.6805 -172.1130 -80.9795 -174.9310 0.0000 0.0000 0.0000 -18.6313 0.1474 -13.8178 0.4690 4.3924 12.1834 0.4343 -6.2696 -11.8685 1.3787 -7.4301 -20.9960 0.0000 0.0000 0.0000 19.1954 -4.1968 -15.7595 -0.6704 -5.2361 14.5833 0.4793 21.9541 -11.5661 -0.3348 3.7183 -10.2855 0.3313 1.9241 -9.8424 -1.0255 2.2526 -6.3328 -1.0453 0.9820 -1.0068 -30.5654 -6.2711 17.3918 43.3373 -14.1873 -10.0069 24.1551 -9.8197 0.4053 -0.0000 -0.0000 0.0000 -79.3187 21.2899 40.3275 28.6022 -39.6648 -10.5059 -0.0000 0.0000 -58.9181 -14.5887 -8.8089 2.2825 -7.1250 0.0000 -0.0000 -28.6620 20.9761 18.9877 -0.0000 -0.0000 0.0000 88.2891 -15.3808 18.0279 -17.9635 28.1104 -4.5320 0.0000 0.0000 20.7798 -8.6301 5.6679 -0.8588 7.1250 -0.0000 -0.0000 13.3671 -24.2517 6.8780
-6.0619 16.2421 34.6783 -172.0490 -80.9674 -174.9010 0.0000 0.0000 0.0000 -18.6068 0.1308 -13.9320 0.4673 4.3844 12.1606 0.4304 -6.2926 -11.8227 1.3628 -7.3889 -20.8727 0.0000 0.0000 0.0000 19.2414 -4.2422 -15.9109 -0.6692 -5.2313 14.5695 0.4969 22.0474 -11.4977 -0.3320 3.7029 -10.2422 0.2807 1.9264 -9.7550 -1.0053 2.2595 -6.3549 -0.9985 0.9870 -1.0800 -30.5780 -6.2612 17.3239 43.3558 -14.1194 -10.1353 24.1859 -9.7805 0.3604 -0.0000 -0.0000 0.0000 -78.8598 21.8881 41.0858 29.3547 -40.3338 -10.9895 -0.0000 0.0000 -58.8785 -13.8079 -9.3428 2.2848 -7.1250 0.0000 -0.0000 -28.0730 20.5366 18.8042 -0.0000 -0.0000 0.0000 88.0685 -15.5684 17.9980 -18.0938 28.2771 -4.5936 0.0000 0.0000 20.6778 -8.6182 5.6898 -0.8609 7.1250 -0.0000 -0.0000 13.3737 -24.2303 6.8884
